<svg class="diagram-root" style="background: #f5f6f6" xmlns="http://www.w3.org/2000/svg" xmlns:xlink="http://www.w3.org/1999/xlink"><style>.diagram-root { font-family: "Helvetica Neue", sans-serif; font-size: 12px; } .t { overflow: visible; } .t-bg { y: 40; fill: #fff;   } .th { fill: #005aa0;   } .tht { fill: #fff; font-size: 14px;  } .tf { fill: #323c46; overflow: visible; } .tf.pk { fill: #005aa0; font-weight: bold; } .tf.fk { font-weight: bold; } .ty { fill: #adb1b5; font-weight: normal; text-anchor: end; } .r { fill: transparent; stroke: #c3c3c3; stroke-width: 1; } .l { stroke: 1; } .i { fill: #c2c7ce; stroke: #c2c7ce; } .i.ix { fill: #afb3b6; stroke: #000; } .fa { fill: transparent; overflow: visible; } .fa .bg.hover { fill: #f7f7f7; } .c { cy: 12; r: 4; stroke: #d2d2dc; fill: #d2d2dc; } .hr { fill: transparent; stroke: #323c46; stroke-opacity: 0.035; stroke-width: 13; } .dc { stroke: #fa5a3c; fill: #fa5a3c; } .x { stroke: white; stroke-width: 1; } .hl .th { fill: #1b9bff; } .hl .tht {  } .fhl .bg { fill: #e7f4ff; } .fhls .bg {  } .r.hl { stroke: #1b9bff; } .dim { opacity: 0.25; }</style><g class="drawing-wrapper" transform="translate(-73, -5) scale(1,1)"><g class="rs"><path d="M 606 117 m -1, 0 a 1,1 0 1,0 2,0 a 1,1 0 1,0 -2,0 M 606 117 m -0.5, 0 a 0.5,0.5 0 1,0 1,0 a 0.5,0.5 0 1,0 -1,0  M606 117 L606 117 594 117 M 606 123 m -1, 0 a 1,1 0 1,0 2,0 a 1,1 0 1,0 -2,0 M 606 123 m -0.5, 0 a 0.5,0.5 0 1,0 1,0 a 0.5,0.5 0 1,0 -1,0  M606 123 L606 123 599 117 606 111 M 606 111 m -1, 0 a 1,1 0 1,0 2,0 a 1,1 0 1,0 -2,0 M 606 111 m -0.5, 0 a 0.5,0.5 0 1,0 1,0 a 0.5,0.5 0 1,0 -1,0  M594 117 Q 514.77 117, 435.54 107 T 277.08 97 M 265.08 97 m -1, 0 a 1,1 0 1,0 2,0 a 1,1 0 1,0 -2,0 M 265.08 97 m -0.5, 0 a 0.5,0.5 0 1,0 1,0 a 0.5,0.5 0 1,0 -1,0  M265.08 97 L265.08 97 277.08 97 M271.08 103 L271.08 103 271.08 91" id="h2957850466" class="r"></path><path d="M 452 289 m -1, 0 a 1,1 0 1,0 2,0 a 1,1 0 1,0 -2,0 M 452 289 m -0.5, 0 a 0.5,0.5 0 1,0 1,0 a 0.5,0.5 0 1,0 -1,0  M452 289 L452 289 440 289 M 452 295 m -1, 0 a 1,1 0 1,0 2,0 a 1,1 0 1,0 -2,0 M 452 295 m -0.5, 0 a 0.5,0.5 0 1,0 1,0 a 0.5,0.5 0 1,0 -1,0  M452 295 L452 295 445 289 452 283 M 452 283 m -1, 0 a 1,1 0 1,0 2,0 a 1,1 0 1,0 -2,0 M 452 283 m -0.5, 0 a 0.5,0.5 0 1,0 1,0 a 0.5,0.5 0 1,0 -1,0  M440 289 Q 399.27 289, 358.54 193 T 277.08 97 M 265.08 97 m -1, 0 a 1,1 0 1,0 2,0 a 1,1 0 1,0 -2,0 M 265.08 97 m -0.5, 0 a 0.5,0.5 0 1,0 1,0 a 0.5,0.5 0 1,0 -1,0  M265.08 97 L265.08 97 277.08 97 M271.08 103 L271.08 103 271.08 91" id="h2335287664" class="r"></path><path d="M 594.26 314 m -1, 0 a 1,1 0 1,0 2,0 a 1,1 0 1,0 -2,0 M 594.26 314 m -0.5, 0 a 0.5,0.5 0 1,0 1,0 a 0.5,0.5 0 1,0 -1,0  M594.26 314 L594.26 314 606.26 314 M 594.26 320 m -1, 0 a 1,1 0 1,0 2,0 a 1,1 0 1,0 -2,0 M 594.26 320 m -0.5, 0 a 0.5,0.5 0 1,0 1,0 a 0.5,0.5 0 1,0 -1,0  M594.26 320 L594.26 320 601.26 314 594.26 308 M 594.26 308 m -1, 0 a 1,1 0 1,0 2,0 a 1,1 0 1,0 -2,0 M 594.26 308 m -0.5, 0 a 0.5,0.5 0 1,0 1,0 a 0.5,0.5 0 1,0 -1,0  M606.26 314 Q 673.45 314, 740.63 285.5 T 875 257 M 887 257 m -1, 0 a 1,1 0 1,0 2,0 a 1,1 0 1,0 -2,0 M 887 257 m -0.5, 0 a 0.5,0.5 0 1,0 1,0 a 0.5,0.5 0 1,0 -1,0  M887 257 L887 257 875 257 M881 263 L881 263 881 251" id="h1499507187" class="r"></path><path d="M 887 257 m -1, 0 a 1,1 0 1,0 2,0 a 1,1 0 1,0 -2,0 M 887 257 m -0.5, 0 a 0.5,0.5 0 1,0 1,0 a 0.5,0.5 0 1,0 -1,0  M887 257 L887 257 875 257 M 887 263 m -1, 0 a 1,1 0 1,0 2,0 a 1,1 0 1,0 -2,0 M 887 263 m -0.5, 0 a 0.5,0.5 0 1,0 1,0 a 0.5,0.5 0 1,0 -1,0  M887 263 L887 263 880 257 887 251 M 887 251 m -1, 0 a 1,1 0 1,0 2,0 a 1,1 0 1,0 -2,0 M 887 251 m -0.5, 0 a 0.5,0.5 0 1,0 1,0 a 0.5,0.5 0 1,0 -1,0  M875 257 Q 853.05 257, 831.09 174.5 T 787.18 92 M 775.18 92 m -1, 0 a 1,1 0 1,0 2,0 a 1,1 0 1,0 -2,0 M 775.18 92 m -0.5, 0 a 0.5,0.5 0 1,0 1,0 a 0.5,0.5 0 1,0 -1,0  M775.18 92 L775.18 92 787.18 92 M781.18 98 L781.18 98 781.18 86" id="h526277710" class="r"></path><path d="M 1051.72 282 m -1, 0 a 1,1 0 1,0 2,0 a 1,1 0 1,0 -2,0 M 1051.72 282 m -0.5, 0 a 0.5,0.5 0 1,0 1,0 a 0.5,0.5 0 1,0 -1,0  M1051.72 282 L1051.72 282 1063.72 282 M 1051.72 288 m -1, 0 a 1,1 0 1,0 2,0 a 1,1 0 1,0 -2,0 M 1051.72 288 m -0.5, 0 a 0.5,0.5 0 1,0 1,0 a 0.5,0.5 0 1,0 -1,0  M1051.72 288 L1051.72 288 1058.72 282 1051.72 276 M 1051.72 276 m -1, 0 a 1,1 0 1,0 2,0 a 1,1 0 1,0 -2,0 M 1051.72 276 m -0.5, 0 a 0.5,0.5 0 1,0 1,0 a 0.5,0.5 0 1,0 -1,0  M1063.72 282 C 1454.36 282, 1326.62 288, 1276.62 288 M 1264.62 288 m -1, 0 a 1,1 0 1,0 2,0 a 1,1 0 1,0 -2,0 M 1264.62 288 m -0.5, 0 a 0.5,0.5 0 1,0 1,0 a 0.5,0.5 0 1,0 -1,0  M1264.62 288 L1264.62 288 1276.62 288 M1270.62 294 L1270.62 294 1270.62 282" id="h2335932216" class="r"></path><path d="M 901 107 m -1, 0 a 1,1 0 1,0 2,0 a 1,1 0 1,0 -2,0 M 901 107 m -0.5, 0 a 0.5,0.5 0 1,0 1,0 a 0.5,0.5 0 1,0 -1,0  M901 107 L901 107 889 107 M 901 113 m -1, 0 a 1,1 0 1,0 2,0 a 1,1 0 1,0 -2,0 M 901 113 m -0.5, 0 a 0.5,0.5 0 1,0 1,0 a 0.5,0.5 0 1,0 -1,0  M901 113 L901 113 894 107 901 101 M 901 101 m -1, 0 a 1,1 0 1,0 2,0 a 1,1 0 1,0 -2,0 M 901 101 m -0.5, 0 a 0.5,0.5 0 1,0 1,0 a 0.5,0.5 0 1,0 -1,0  M889 107 Q 863.55 107, 838.09 99.5 T 787.18 92 M 775.18 92 m -1, 0 a 1,1 0 1,0 2,0 a 1,1 0 1,0 -2,0 M 775.18 92 m -0.5, 0 a 0.5,0.5 0 1,0 1,0 a 0.5,0.5 0 1,0 -1,0  M775.18 92 L775.18 92 787.18 92 M781.18 98 L781.18 98 781.18 86" id="h3107652328" class="r"></path></g><g class="hrs"></g><g class="ts"><svg width="170.08" height="100" x="95" y="40" id="h776457530" class="t"><rect height="40" width="170.08" class="th"></rect><text x="13" y="25" class="tht">Deparments</text><rect height="60" width="170.08" class="t-bg"></rect><text x="13" y="61" class="tf pk">dept_no<tspan x="157.08" class="ty">VARCHAR</tspan></text><path d="M7,14A2,2 0 0,1 5,12A2,2 0 0,1 7,10A2,2 0 0,1 9,12A2,2 0 0,1 7,14M12.65,10C11.83,7.67 9.61,6 7, 6A6, 6 0 0, 0 1, 12A6, 6 0 0, 0 7, 18C9.61, 18 11.83, 16.33 12.65, 14H17V18H21V14H23V10H12.65Z" class="i pk" transform="translate(80.02140625000001, 48) scale(0.65)"></path><text x="13" y="86" class="tf">dept_name<tspan x="157.08" class="ty">VACHAR</tspan></text></svg><svg width="169.18" height="100" x="606" y="35" id="h4086156755" class="t"><rect height="40" width="169.18" class="th"></rect><text x="13" y="25" class="tht">Dept_emp</text><rect height="60" width="169.18" class="t-bg"></rect><text x="13" y="61" class="tf pk">emp_no<tspan x="156.18" class="ty">VARCHAR</tspan></text><path d="M7,14A2,2 0 0,1 5,12A2,2 0 0,1 7,10A2,2 0 0,1 9,12A2,2 0 0,1 7,14M12.65,10C11.83,7.67 9.61,6 7, 6A6, 6 0 0, 0 1, 12A6, 6 0 0, 0 7, 18C9.61, 18 11.83, 16.33 12.65, 14H17V18H21V14H23V10H12.65Z" class="i pk" transform="translate(79.12140625, 48) scale(0.65)"></path><text x="13" y="86" class="tf fk">dept_no<tspan x="156.18" class="ty">VACHAR</tspan></text></svg><svg width="112.28" height="100" x="901" y="50" id="h3858243705" class="t"><rect height="40" width="112.28" class="th"></rect><text x="13" y="25" class="tht">Salaries</text><rect height="60" width="112.28" class="t-bg"></rect><text x="13" y="61" class="tf fk">emp_no<tspan x="99.28" class="ty">INT</tspan></text><text x="13" y="86" class="tf">salary</text></svg><svg width="164.72" height="225" x="887" y="200" id="h3299212598" class="t"><rect height="40" width="164.72" class="th"></rect><text x="13" y="25" class="tht">Employees</text><rect height="185" width="164.72" class="t-bg"></rect><text x="13" y="61" class="tf fk">emp_no<tspan x="151.72" class="ty">INT</tspan></text><text x="13" y="86" class="tf fk">emp_title_id<tspan x="151.72" class="ty">VACHAR</tspan></text><text x="13" y="111" class="tf">birth_date<tspan x="151.72" class="ty">DATE</tspan></text><text x="13" y="136" class="tf">first_name<tspan x="151.72" class="ty">VACHAR</tspan></text><text x="13" y="161" class="tf">last_name<tspan x="151.72" class="ty">VACHAR</tspan></text><text x="13" y="186" class="tf">sex<tspan x="151.72" class="ty">VACHAR</tspan></text><text x="13" y="211" class="tf">hire_date<tspan x="151.72" class="ty">DATE</tspan></text></svg><svg width="153.62" height="100" x="1111" y="231" id="h1984824179" class="t"><rect height="40" width="153.62" class="th"></rect><text x="13" y="25" class="tht">Title</text><rect height="60" width="153.62" class="t-bg"></rect><text x="13" y="61" class="tf pk">title_id<tspan x="140.62" class="ty">VACHAR</tspan></text><path d="M7,14A2,2 0 0,1 5,12A2,2 0 0,1 7,10A2,2 0 0,1 9,12A2,2 0 0,1 7,14M12.65,10C11.83,7.67 9.61,6 7, 6A6, 6 0 0, 0 1, 12A6, 6 0 0, 0 7, 18C9.61, 18 11.83, 16.33 12.65, 14H17V18H21V14H23V10H12.65Z" class="i pk" transform="translate(71.383671875, 48) scale(0.65)"></path><text x="13" y="86" class="tf">title</text></svg><svg width="142.26" height="100" x="452" y="232" id="h2403958395" class="t"><rect height="40" width="142.26" class="th"></rect><text x="13" y="25" class="tht">Dept_manager</text><rect height="60" width="142.26" class="t-bg"></rect><text x="13" y="61" class="tf fk">dept_no<tspan x="129.26" class="ty">VACHAR</tspan></text><text x="13" y="86" class="tf fk">emp_no<tspan x="129.26" class="ty">VACHAR</tspan></text></svg></g></g><text class="qdbd-link" x="10" y="20">www.quickdatabasediagrams.com</text></svg>